<svg width="270" height="407" viewBox="0 0 270 407" fill="none" xmlns="http://www.w3.org/2000/svg">
<path d="M19.8455 160.986L19.3771 160.993L21.1224 165.09C23.053 170.879 25.4488 176.503 28.2862 181.906L79.4748 302.061C81.1086 305.896 83.8263 309.171 87.2946 311.483C90.7629 313.795 94.8308 315.045 98.9991 315.078L167.563 315.626C171.996 315.661 176.331 314.319 179.969 311.785C183.607 309.251 186.369 305.65 187.872 301.479L234.147 173.138C235.655 169.549 236.976 165.885 238.105 162.159L239.677 157.802L239.333 157.807C243.745 140.84 244.18 123.083 240.603 105.921C237.026 88.7584 229.533 72.6539 218.71 58.8628C207.886 45.0717 194.024 33.9665 178.203 26.4129C162.383 18.8594 145.031 15.0616 127.502 15.3155C109.973 15.5694 92.7385 19.8682 77.1434 27.8769C61.5483 35.8855 48.0134 47.3875 37.5938 61.4864C27.1741 75.5852 20.1513 91.9 17.0727 109.159C13.9942 126.418 14.9431 144.154 19.8454 160.986L19.8455 160.986Z" fill="#DD2121"/>
<path d="M168.327 168.244L142.747 290.919L145.279 291.447L170.859 168.772L168.327 168.244Z" fill="black"/>
<path d="M97.1254 167.674L94.585 168.161L118.179 291.233L120.72 290.746L97.1254 167.674Z" fill="black"/>
<path d="M175.628 383.278L83.7936 382.545C83.1102 382.536 82.4582 382.256 81.9802 381.768C81.5022 381.279 81.2369 380.621 81.2424 379.938C81.2478 379.254 81.5235 378.601 82.0093 378.12C82.4951 377.639 83.1514 377.37 83.8349 377.372L175.669 378.105C176.01 378.105 176.347 378.174 176.662 378.305C176.977 378.437 177.262 378.629 177.502 378.872C177.742 379.114 177.931 379.401 178.06 379.717C178.188 380.033 178.253 380.371 178.25 380.712C178.247 381.053 178.177 381.39 178.044 381.704C177.91 382.018 177.716 382.302 177.473 382.541C177.229 382.779 176.94 382.967 176.624 383.094C176.307 383.22 175.969 383.283 175.628 383.278V383.278Z" fill="black"/>
<path d="M175.136 363.871L83.3017 363.138C82.9607 363.137 82.6232 363.069 82.3087 362.938C81.9941 362.806 81.7086 362.614 81.4687 362.371C81.2289 362.129 81.0392 361.842 80.9108 361.526C80.7824 361.21 80.7177 360.872 80.7204 360.531C80.7231 360.19 80.7932 359.853 80.9267 359.539C81.0601 359.225 81.2543 358.941 81.4981 358.702C81.7418 358.464 82.0303 358.276 82.3469 358.149C82.6635 358.023 83.002 357.96 83.343 357.965L175.177 358.698C175.518 358.698 175.855 358.767 176.17 358.898C176.485 359.03 176.77 359.222 177.01 359.465C177.25 359.707 177.439 359.994 177.568 360.31C177.696 360.626 177.761 360.964 177.758 361.305C177.756 361.646 177.686 361.983 177.552 362.297C177.419 362.611 177.224 362.895 176.981 363.134C176.737 363.372 176.449 363.56 176.132 363.687C175.815 363.813 175.477 363.876 175.136 363.871V363.871Z" fill="black"/>
<path d="M174.644 344.465L82.8102 343.732C82.1268 343.722 81.4748 343.443 80.9968 342.954C80.5188 342.466 80.2535 341.808 80.259 341.124C80.2644 340.441 80.5402 339.787 81.026 339.307C81.5117 338.826 82.168 338.557 82.8515 338.558L174.686 339.291C175.369 339.301 176.021 339.58 176.499 340.069C176.977 340.557 177.242 341.215 177.237 341.899C177.231 342.582 176.956 343.236 176.47 343.717C175.984 344.197 175.328 344.466 174.644 344.465L174.644 344.465Z" fill="black"/>
<path d="M129.563 401.364C147.779 401.509 162.627 391.475 162.727 378.951L96.7617 378.425C96.6617 390.948 111.348 401.218 129.563 401.364Z" fill="black"/>
<path d="M125.62 149.447C121.702 149.416 118.088 146.852 116.053 145.077C115.385 144.495 114.73 143.886 114.072 143.275C111.679 141.053 109.419 138.953 106.576 138.103C100.301 136.223 93.9403 141.065 88.5496 146.05L86.7924 144.151C92.7189 138.669 99.7904 133.371 107.319 135.624C110.738 136.648 113.328 139.053 115.832 141.379C116.47 141.972 117.106 142.562 117.753 143.127C119.869 144.973 123.974 147.864 127.72 146.509C129.278 145.797 130.674 144.774 131.823 143.503C132.71 142.614 133.665 141.796 134.68 141.056C136.753 139.66 139.192 138.908 141.692 138.895C144.191 138.883 146.638 139.609 148.725 140.984C149.474 141.511 150.194 142.079 150.881 142.685C152.225 143.829 153.494 144.908 154.975 145.151C157.165 145.513 159.201 143.994 161.358 142.387C163.583 140.729 165.883 139.015 168.765 138.932C168.859 138.93 168.954 138.928 169.047 138.929C174.203 138.97 177.345 144.206 179.27 148.174L176.941 149.303C174.325 143.908 171.737 141.414 168.838 141.518C166.774 141.577 164.894 142.978 162.904 144.461C160.41 146.321 157.827 148.244 154.555 147.704C152.365 147.345 150.758 145.978 149.205 144.655C148.589 144.111 147.945 143.601 147.274 143.126C145.615 142.054 143.68 141.488 141.705 141.498C139.73 141.508 137.8 142.094 136.152 143.183C135.249 143.847 134.398 144.581 133.607 145.376C132.209 146.904 130.503 148.119 128.602 148.942C127.646 149.287 126.636 149.458 125.62 149.447Z" fill="black"/>
</svg>
